<svg width="1728" height="1117" viewBox="0 0 1728 1117" fill="none" xmlns="http://www.w3.org/2000/svg">
<g filter="url(#filter0_f_39_291)">
<path d="M216.202 422.719C159.213 422.719 91.6814 413.968 51.3602 375.436C10.785 336.661 -6.01357 273.957 1.90757 222.797C15.7879 133.149 119.455 62.86 222.571 62.86C236.459 62.86 242.146 68.5479 252.917 75.5534C286.085 97.1261 329.134 113.866 369.805 121.884C441.299 135.98 490.309 115.348 549.258 83.1694C593.002 59.2909 639.7 2.36927 694.994 0.0274795C729.701 -1.44244 733.615 56.4623 736.954 76.8227C745.412 128.405 738.943 123.415 694.619 155.839C672.212 172.231 647.29 196.889 642.544 222.797C638.577 244.454 664.671 258.208 678.51 272.936C722.21 319.443 769.281 387.817 790.902 443.98C815.757 508.543 724.845 528.674 672.515 542.672C592.714 564.017 458.671 576.462 375.8 548.384C335.053 534.578 306.041 525.408 273.897 495.706C255.03 478.271 216.202 446.609 216.202 422.719Z" fill="#C9D6EE"/>
</g>
<g filter="url(#filter1_f_39_291)">
<path d="M1369.53 426.424C1413.1 415.138 1452.28 391.842 1490.2 371.252C1548.37 339.669 1596.88 292.327 1614.58 234.293C1625.72 197.769 1614.9 161.062 1589.92 130.602C1572.81 109.724 1549.07 92.9272 1529.37 73.8591C1506.84 52.0465 1484.02 32.4936 1456.71 14.898C1429.53 -2.61273 1390.48 -1.58888 1358.19 2.51431C1317.99 7.621 1279.35 18.6735 1238.83 22.1064C1209.26 24.6109 1187.19 32.7062 1169.87 53.4353C1156.62 69.2968 1138.67 83.974 1138.67 104.911C1138.67 116.516 1156.7 119.817 1166.16 125.981C1179.42 134.62 1184.01 151.259 1181.66 164.704C1180.79 169.664 1177.8 175.055 1174.02 178.843C1167.87 185 1168.13 192.834 1168.13 200.468C1168.13 214.299 1167.62 227.038 1163.76 240.577C1158.29 259.803 1153.05 276.872 1163.11 295.102C1173.81 314.506 1174.26 337.595 1165.29 357.482C1161.54 365.798 1155.56 377.756 1158.96 386.871C1165.94 405.581 1203.2 405.076 1221.81 405.076C1233.42 405.076 1244.98 408.543 1246.68 420.048C1247.02 422.303 1251.91 422.525 1253.66 424.669C1255.64 427.084 1256.48 430.357 1256.5 433.245C1293.24 432.746 1334.61 435.472 1369.53 426.424Z" fill="#9CACDD"/>
</g>
<g filter="url(#filter2_f_39_291)">
<path d="M304.599 1185.91C414.636 1186.61 520.453 1193.81 619.77 1148.08C682.338 1119.27 739.33 1058.7 755.011 999.402C759.729 981.562 772.325 929.167 755.011 914.502C741.515 903.07 711.896 906.48 696.503 912.877C648.61 932.778 607.99 965.347 556.946 979.497C532.169 986.365 502.214 976.022 479.255 969.341C424.855 953.513 380.255 925.6 329.627 903.534C284.758 883.977 255.466 839.173 201.58 835.289C156.383 832.031 116.829 856.951 82.6449 878.957C64.4317 890.682 34.9568 906.823 31.0904 928.11C28.0218 945.005 43.5881 963.161 51.4724 977.669C81.1175 1032.22 125.165 1080.09 151.224 1135.89C174.57 1185.88 228.292 1210.47 290.062 1203.93C298.621 1203.03 303.57 1194.48 304.599 1185.91Z" fill="#8490D0"/>
</g>
<g filter="url(#filter3_f_39_291)">
<path d="M1200.27 1043.84C1200.27 1055.34 1197.65 1068.94 1205.55 1078.98C1213.71 1089.35 1224.91 1097.86 1240.08 1098.68C1243.21 1098.85 1268.69 1096.79 1269.57 1100.51C1270.96 1106.38 1150.89 1094.41 1138.89 1091.37C1101.7 1081.94 1081.09 1067.65 1064.07 1037.34C1032.66 981.389 1029.09 908.051 1058.32 850.277C1071.74 823.757 1101.03 786.689 1138.89 787.922C1154.39 788.427 1168.36 807.017 1178.45 815.139C1194.54 828.087 1205.71 840.354 1226.41 848.246C1277.96 867.894 1316.47 846.821 1345.11 810.671C1374.54 773.513 1411.48 715.743 1468.12 705.866C1496.88 700.851 1521.38 699.077 1518.71 729.63C1516.73 752.304 1503.15 761.185 1512.96 785.079C1524.78 813.874 1540.16 844.924 1566.43 866.323C1580.7 877.944 1580.1 892.899 1580.1 908.57C1580.1 943.322 1590.66 956.885 1621.34 980.877C1661.06 1011.93 1737.27 1063.66 1715.58 1118.79C1698.72 1161.63 1612.58 1157.18 1571.47 1157.18C1564.77 1157.18 1533.1 1161.21 1533.1 1152.71C1533.1 1129.38 1558.73 1114.85 1548.93 1089.34C1536.63 1057.35 1503.85 1035.55 1474.11 1015.41C1460.83 1006.41 1463.02 991.961 1441.98 986.158C1413.93 978.422 1388.65 974.377 1359.25 974.377C1339.83 974.377 1309 969.954 1291.63 980.064C1285.02 983.918 1283.65 997.021 1290.91 1000.78C1315.59 1013.55 1280.89 1021.12 1265.98 1021.9C1240.52 1023.25 1213.79 1031.88 1188.28 1035.72C1184.37 1036.31 1189.64 1039.34 1200.27 1043.84Z" fill="#406EB7"/>
</g>
<defs>
<filter id="filter0_f_39_291" x="-400" y="-400" width="1595.12" height="1364.66" filterUnits="userSpaceOnUse" color-interpolation-filters="sRGB">
<feFlood flood-opacity="0" result="BackgroundImageFix"/>
<feBlend mode="normal" in="SourceGraphic" in2="BackgroundImageFix" result="shape"/>
<feGaussianBlur stdDeviation="200" result="effect1_foregroundBlur_39_291"/>
</filter>
<filter id="filter1_f_39_291" x="738.669" y="-400" width="1280.29" height="1233.36" filterUnits="userSpaceOnUse" color-interpolation-filters="sRGB">
<feFlood flood-opacity="0" result="BackgroundImageFix"/>
<feBlend mode="normal" in="SourceGraphic" in2="BackgroundImageFix" result="shape"/>
<feGaussianBlur stdDeviation="200" result="effect1_foregroundBlur_39_291"/>
</filter>
<filter id="filter2_f_39_291" x="-369.305" y="435" width="1533.17" height="1169.97" filterUnits="userSpaceOnUse" color-interpolation-filters="sRGB">
<feFlood flood-opacity="0" result="BackgroundImageFix"/>
<feBlend mode="normal" in="SourceGraphic" in2="BackgroundImageFix" result="shape"/>
<feGaussianBlur stdDeviation="200" result="effect1_foregroundBlur_39_291"/>
</filter>
<filter id="filter3_f_39_291" x="638.319" y="303" width="1481.07" height="1255.13" filterUnits="userSpaceOnUse" color-interpolation-filters="sRGB">
<feFlood flood-opacity="0" result="BackgroundImageFix"/>
<feBlend mode="normal" in="SourceGraphic" in2="BackgroundImageFix" result="shape"/>
<feGaussianBlur stdDeviation="200" result="effect1_foregroundBlur_39_291"/>
</filter>
</defs>
</svg>
