<svg width="25" height="24" viewBox="0 0 25 24" fill="none" xmlns="http://www.w3.org/2000/svg">
<path d="M16.9249 4.60509L17.9149 3.6151C18.7351 2.79497 20.0648 2.79497 20.8849 3.6151C21.705 4.43524 21.705 5.76493 20.8849 6.58507L19.8949 7.57506M16.9249 4.60509L10.2656 11.2644C9.75807 11.772 9.39804 12.4078 9.22397 13.1041L8.5 16L11.3959 15.276C12.0922 15.102 12.728 14.7419 13.2356 14.2344L19.8949 7.57506M16.9249 4.60509L19.8949 7.57506" stroke="#141B34" stroke-width="1.5" stroke-linejoin="round"/>
<path d="M19.4999 13.5C19.4999 16.7875 19.4999 18.4312 18.592 19.5376C18.4258 19.7401 18.2401 19.9258 18.0375 20.092C16.9312 21 15.2874 21 11.9999 21H11.5C7.72876 21 5.84316 21 4.67159 19.8284C3.50003 18.6569 3.5 16.7712 3.5 13V12.5C3.5 9.21252 3.5 7.56879 4.40794 6.46244C4.57417 6.2599 4.7599 6.07417 4.96244 5.90794C6.06879 5 7.71252 5 11 5" stroke="#141B34" stroke-width="1.5" stroke-linecap="round" stroke-linejoin="round"/>
</svg>
