<svg width="30" height="30" viewBox="0 0 30 30" fill="none" xmlns="http://www.w3.org/2000/svg">
<path d="M19.375 15C19.375 17.4162 17.4162 19.375 15 19.375C12.5838 19.375 10.625 17.4162 10.625 15C10.625 12.5838 12.5838 10.625 15 10.625C17.4162 10.625 19.375 12.5838 19.375 15Z" stroke="#406EB7" stroke-width="1.875"/>
<path d="M26.2637 17.6205C26.9161 17.4447 27.2424 17.3567 27.3711 17.1884C27.5 17.0203 27.5 16.7497 27.5 16.2085V13.7914C27.5 13.2503 27.5 12.9797 27.3711 12.8115C27.2423 12.6433 26.9161 12.5553 26.2637 12.3794C23.8257 11.7219 22.2999 9.17304 22.9291 6.75099C23.1021 6.08489 23.1886 5.75185 23.106 5.55651C23.0234 5.36118 22.7864 5.22658 22.3121 4.95735L20.1562 3.73331C19.691 3.46914 19.4584 3.33705 19.2496 3.36518C19.0408 3.3933 18.8053 3.62831 18.334 4.09831C16.51 5.918 13.492 5.91793 11.6679 4.0982C11.1968 3.62819 10.9612 3.39319 10.7524 3.36505C10.5436 3.33693 10.311 3.46901 9.84566 3.73319L7.6898 4.95724C7.21566 5.22644 6.97859 5.36104 6.89597 5.55634C6.81335 5.75165 6.89984 6.08474 7.07281 6.7509C7.70171 9.17303 6.17465 11.7219 3.73628 12.3794C3.0839 12.5553 2.75771 12.6433 2.62885 12.8114C2.5 12.9797 2.5 13.2503 2.5 13.7914V16.2085C2.5 16.7497 2.5 17.0203 2.62885 17.1884C2.75769 17.3567 3.08389 17.4447 3.73628 17.6205C6.17425 18.278 7.7001 20.8269 7.0709 23.2489C6.89786 23.915 6.81134 24.248 6.89395 24.4434C6.97658 24.6388 7.21365 24.7734 7.68781 25.0425L9.84369 26.2666C10.309 26.5308 10.5417 26.6629 10.7505 26.6348C10.9593 26.6066 11.1949 26.3715 11.6659 25.9015C13.4909 24.0804 16.511 24.0803 18.3361 25.9014C18.8071 26.3715 19.0426 26.6065 19.2515 26.6347C19.4603 26.6628 19.693 26.5307 20.1583 26.2665L22.3141 25.0424C22.7884 24.7733 23.0255 24.6387 23.108 24.4433C23.1906 24.2479 23.1041 23.9149 22.931 23.2488C22.3015 20.8269 23.8261 18.2782 26.2637 17.6205Z" stroke="#406EB7" stroke-width="1.875" stroke-linecap="round"/>
</svg>
